<svg width="152" height="152" viewBox="0 0 152 152" fill="none" xmlns="http://www.w3.org/2000/svg">
<path d="M76 0C34.0161 0 0 34.0161 0 76C0 117.984 34.0161 152 76 152C117.984 152 152 117.984 152 76C152 34.0161 117.984 0 76 0ZM76 29.4194C90.8935 29.4194 102.968 41.4935 102.968 56.3871C102.968 71.2806 90.8935 83.3548 76 83.3548C61.1065 83.3548 49.0323 71.2806 49.0323 56.3871C49.0323 41.4935 61.1065 29.4194 76 29.4194ZM76 134.839C58.0113 134.839 41.8919 126.687 31.1048 113.939C36.8661 103.09 48.1435 95.6129 61.2903 95.6129C62.0258 95.6129 62.7613 95.7355 63.4661 95.95C67.45 97.2371 71.6177 98.0645 76 98.0645C80.3823 98.0645 84.5806 97.2371 88.5339 95.95C89.2387 95.7355 89.9742 95.6129 90.7097 95.6129C103.856 95.6129 115.134 103.09 120.895 113.939C110.108 126.687 93.9887 134.839 76 134.839Z" fill="white"/>
</svg>
