<svg width="21" height="20" viewBox="0 0 21 20" fill="none" xmlns="http://www.w3.org/2000/svg">
<path d="M10.8409 20C8.87431 20 6.9519 19.4135 5.31675 18.3147C3.68161 17.2159 2.40716 15.6541 1.65459 13.8268C0.902013 11.9996 0.705105 9.98891 1.08876 8.0491C1.47242 6.10929 2.41942 4.32746 3.81 2.92894C5.20058 1.53041 6.97228 0.578004 8.90107 0.192152C10.8299 -0.1937 12.8291 0.00433286 14.646 0.761209C16.4629 1.51808 18.0158 2.79981 19.1083 4.4443C20.2009 6.08879 20.7841 8.02219 20.7841 10C20.7812 12.6513 19.7327 15.1932 17.8686 17.0679C16.0045 18.9426 13.4771 19.9971 10.8409 20ZM10.8409 1.66667C9.20207 1.66667 7.60006 2.15541 6.23744 3.07109C4.87482 3.98677 3.81278 5.28826 3.18564 6.81097C2.55849 8.33369 2.3944 10.0092 2.71412 11.6258C3.03383 13.2423 3.823 14.7271 4.98181 15.8926C6.14063 17.058 7.61705 17.8517 9.22437 18.1732C10.8317 18.4947 12.4977 18.3297 14.0118 17.699C15.5259 17.0683 16.82 16.0002 17.7304 14.6297C18.6409 13.2593 19.1269 11.6482 19.1269 10C19.1245 7.79061 18.2507 5.6724 16.6973 4.11013C15.1439 2.54785 13.0377 1.6691 10.8409 1.66667Z" fill="#DC9F42"/>
<path d="M12.498 15.8335H10.8408V10.0002H9.18359V8.3335H10.8408C11.2803 8.3335 11.7018 8.50909 12.0126 8.82165C12.3234 9.13421 12.498 9.55813 12.498 10.0002V15.8335Z" fill="#DC9F42"/>
<path d="M10.8408 6.6665C11.5272 6.6665 12.0837 6.10686 12.0837 5.4165C12.0837 4.72615 11.5272 4.1665 10.8408 4.1665C10.1544 4.1665 9.5979 4.72615 9.5979 5.4165C9.5979 6.10686 10.1544 6.6665 10.8408 6.6665Z" fill="#DC9F42"/>
</svg>
