<svg width="13" height="13" viewBox="0 0 13 13" fill="none" xmlns="http://www.w3.org/2000/svg">
<path d="M11.5392 5.36218H6.92354V0.766025C6.92354 0.342964 6.57912 0 6.15426 0C5.7294 0 5.38497 0.342964 5.38497 0.766025V5.36218H0.769282C0.344422 5.36218 0 5.70514 0 6.1282C0 6.55127 0.344422 6.89423 0.769282 6.89423H5.38497V11.4904C5.38497 11.9134 5.7294 12.2564 6.15426 12.2564C6.57912 12.2564 6.92354 11.9134 6.92354 11.4904V6.89423H11.5392C11.9641 6.89423 12.3085 6.55127 12.3085 6.1282C12.3085 5.70514 11.9641 5.36218 11.5392 5.36218Z" fill="white"/>
</svg>
