<svg width="23" height="22" viewBox="0 0 23 22" fill="none" xmlns="http://www.w3.org/2000/svg">
<path d="M16.3869 9.20242C12.8696 9.20242 10.0067 12.0807 10.0067 15.6191C10.0067 19.1373 12.8696 22 16.3869 22C19.9042 22 22.7671 19.1217 22.7671 15.5833C22.7671 12.0652 19.9042 9.20242 16.3869 9.20242ZM16.3869 20.1667C13.874 20.1667 11.8296 18.1262 11.8296 15.6191C11.8296 13.0918 13.874 11.0357 16.3869 11.0357C18.8998 11.0357 20.9442 13.0763 20.9442 15.5833C20.9442 18.1106 18.8998 20.1667 16.3869 20.1667ZM17.9427 15.8519C18.2991 16.2103 18.2991 16.7897 17.9427 17.1481C17.765 17.3268 17.5317 17.4167 17.2983 17.4167C17.065 17.4167 16.8317 17.3268 16.6539 17.1481L15.7425 16.2314C15.5711 16.0591 15.4754 15.8263 15.4754 15.5833V13.75C15.4754 13.244 15.8828 12.8333 16.3869 12.8333C16.8909 12.8333 17.2983 13.244 17.2983 13.75V15.2038L17.9427 15.8519ZM22.7671 6.41667V8.25C22.7671 8.756 22.3597 9.16667 21.8556 9.16667C21.3516 9.16667 20.9442 8.756 20.9442 8.25V6.41667C20.9442 4.9005 19.7174 3.66667 18.2098 3.66667H5.44938C3.94183 3.66667 2.71501 4.9005 2.71501 6.41667V7.33333H10.9181C11.4213 7.33333 11.8296 7.744 11.8296 8.25C11.8296 8.756 11.4213 9.16667 10.9181 9.16667H2.71501V17.4167C2.71501 18.9328 3.94183 20.1667 5.44938 20.1667H9.09521C9.59834 20.1667 10.0067 20.5773 10.0067 21.0833C10.0067 21.5893 9.59834 22 9.09521 22H5.44938C2.93649 22 0.89209 19.9439 0.89209 17.4167V6.41667C0.89209 3.88942 2.93649 1.83333 5.44938 1.83333H6.36084V0.916667C6.36084 0.410667 6.76917 0 7.2723 0C7.77542 0 8.18376 0.410667 8.18376 0.916667V1.83333H15.4754V0.916667C15.4754 0.410667 15.8828 0 16.3869 0C16.8909 0 17.2983 0.410667 17.2983 0.916667V1.83333H18.2098C20.7227 1.83333 22.7671 3.88942 22.7671 6.41667Z" fill="#DC9F42"/>
</svg>
