<svg width="13" height="12" viewBox="0 0 13 12" fill="none" xmlns="http://www.w3.org/2000/svg">
<path d="M13 3V10.7143C13 11.4241 12.4541 12 11.7812 12H1.21875C0.545898 12 0 11.4241 0 10.7143V3C0 2.29018 0.545898 1.71429 1.21875 1.71429H3.45312L3.76543 0.833036C3.94316 0.332143 4.39766 0 4.90547 0H8.09199C8.5998 0 9.0543 0.332143 9.23203 0.833036L9.54688 1.71429H11.7812C12.4541 1.71429 13 2.29018 13 3ZM9.54688 6.85714C9.54688 5.08393 8.18086 3.64286 6.5 3.64286C4.81914 3.64286 3.45312 5.08393 3.45312 6.85714C3.45312 8.63036 4.81914 10.0714 6.5 10.0714C8.18086 10.0714 9.54688 8.63036 9.54688 6.85714ZM8.73438 6.85714C8.73438 8.15625 7.73145 9.21429 6.5 9.21429C5.26855 9.21429 4.26562 8.15625 4.26562 6.85714C4.26562 5.55804 5.26855 4.5 6.5 4.5C7.73145 4.5 8.73438 5.55804 8.73438 6.85714Z" fill="white"/>
</svg>
