<svg width="12" height="12" viewBox="0 0 12 12" fill="none" xmlns="http://www.w3.org/2000/svg">
<path d="M10.5401 2.05045H8.84618C8.58473 0.893115 7.46647 0.0620393 6.16862 0.0605469H5.07574C3.77789 0.0620393 2.65963 0.893115 2.39821 2.05045H0.704265C0.402481 2.05045 0.157837 2.27317 0.157837 2.54792C0.157837 2.82267 0.402481 3.04542 0.704265 3.04542H1.25069V9.51263C1.25252 10.8857 2.4747 11.9984 3.98289 12H7.26151C8.76969 11.9984 9.99187 10.8857 9.99369 9.51263V3.04542H10.5401C10.8419 3.04542 11.0865 2.82269 11.0865 2.54795C11.0865 2.2732 10.8419 2.05045 10.5401 2.05045ZM5.07577 8.51768C5.07577 8.79243 4.83113 9.01515 4.52934 9.01515C4.22753 9.01515 3.98289 8.79243 3.98289 8.51768V5.53281C3.98289 5.25807 4.22753 5.03534 4.52931 5.03534C4.8311 5.03534 5.07574 5.25807 5.07574 5.53281V8.51768H5.07577ZM7.26151 8.51768C7.26151 8.79243 7.01686 9.01515 6.71508 9.01515C6.41329 9.01515 6.16865 8.79243 6.16865 8.51768V5.53281C6.16865 5.25807 6.41329 5.03534 6.71508 5.03534C7.01686 5.03534 7.26151 5.25807 7.26151 5.53281V8.51768ZM3.5299 2.05045C3.76232 1.45462 4.38126 1.05626 5.07577 1.05549H6.16865C6.86315 1.05626 7.48209 1.45462 7.71451 2.05045H3.5299Z" fill="white"/>
</svg>
