<svg width="14" height="14" viewBox="0 0 14 14" fill="none" xmlns="http://www.w3.org/2000/svg">
<path d="M10.0738 2.92606L12.1095 5.11605C12.1953 5.20831 12.1953 5.35884 12.1095 5.4511L7.18036 10.7537L5.08592 11.0038C4.80605 11.0378 4.56908 10.7828 4.60067 10.4818L4.83314 8.22866L9.7623 2.92606C9.84807 2.8338 9.988 2.8338 10.0738 2.92606ZM13.73 2.37006L12.6286 1.18523C12.2856 0.816186 11.7281 0.816186 11.3828 1.18523L10.5838 2.04472C10.4981 2.13698 10.4981 2.28751 10.5838 2.37977L12.6196 4.56976C12.7054 4.66203 12.8453 4.66203 12.9311 4.56976L13.73 3.71028C14.0731 3.3388 14.0731 2.73911 13.73 2.37006ZM9.65397 9.31151V11.7831H2.43175V4.01377H7.61821C7.69043 4.01377 7.75814 3.98221 7.81005 3.92879L8.71283 2.95762C8.88435 2.7731 8.76248 2.45989 8.52098 2.45989H2.07064C1.47255 2.45989 0.987305 2.9819 0.987305 3.6253V12.1716C0.987305 12.815 1.47255 13.337 2.07064 13.337H10.0151C10.6132 13.337 11.0984 12.815 11.0984 12.1716V8.34034C11.0984 8.08055 10.8073 7.95187 10.6357 8.13397L9.73296 9.10514C9.68331 9.16098 9.65397 9.23382 9.65397 9.31151Z" fill="white"/>
</svg>
