<svg width="17" height="16" viewBox="0 0 17 16" fill="none" xmlns="http://www.w3.org/2000/svg">
<path d="M16.1553 3.88745L10.5977 9.44503C9.97803 10.0631 9.1385 10.4103 8.26324 10.4103C7.38798 10.4103 6.54845 10.0631 5.92877 9.44503L0.37119 3.88745C0.361947 3.99176 0.34082 4.08617 0.34082 4.18982V12.1122C0.341869 12.9874 0.689989 13.8264 1.30882 14.4452C1.92765 15.0641 2.76667 15.4122 3.64183 15.4132H12.8846C13.7598 15.4122 14.5988 15.0641 15.2177 14.4452C15.8365 13.8264 16.1846 12.9874 16.1857 12.1122V4.18982C16.1857 4.08617 16.1645 3.99176 16.1553 3.88745Z" fill="white"/>
<path d="M9.66421 8.51111L15.6945 2.48017C15.4024 1.9958 14.9904 1.59487 14.4982 1.31606C14.006 1.03725 13.4503 0.889973 12.8847 0.888428H3.64185C3.0762 0.889973 2.5205 1.03725 2.02833 1.31606C1.53617 1.59487 1.12416 1.9958 0.832031 2.48017L6.86231 8.51111C7.23438 8.8817 7.73813 9.08976 8.26326 9.08976C8.7884 9.08976 9.29214 8.8817 9.66421 8.51111V8.51111Z" fill="white"/>
</svg>
