<svg width="19" height="19" viewBox="0 0 19 19" fill="none" xmlns="http://www.w3.org/2000/svg">
<path d="M9.6082 5.2118C7.0249 5.2118 4.9412 7.2955 4.9412 9.87879C4.9412 12.4621 7.0249 14.5458 9.6082 14.5458C12.1915 14.5458 14.2752 12.4621 14.2752 9.87879C14.2752 7.2955 12.1915 5.2118 9.6082 5.2118ZM9.6082 12.9129C7.9388 12.9129 6.57404 11.5522 6.57404 9.87879C6.57404 8.20534 7.93474 6.84464 9.6082 6.84464C11.2817 6.84464 12.6424 8.20534 12.6424 9.87879C12.6424 11.5522 11.2776 12.9129 9.6082 12.9129ZM15.5547 5.0209C15.5547 5.6261 15.0672 6.10945 14.4661 6.10945C13.8609 6.10945 13.3775 5.62204 13.3775 5.0209C13.3775 4.41975 13.865 3.93234 14.4661 3.93234C15.0672 3.93234 15.5547 4.41975 15.5547 5.0209ZM18.6457 6.1257C18.5766 4.66752 18.2436 3.37587 17.1753 2.31168C16.1111 1.2475 14.8195 0.914429 13.3613 0.841317C11.8584 0.756019 7.35391 0.756019 5.85104 0.841317C4.39692 0.910367 3.10528 1.24343 2.03703 2.30762C0.968776 3.37181 0.639771 4.66346 0.566659 6.12164C0.481361 7.6245 0.481361 12.129 0.566659 13.6319C0.635709 15.0901 0.968776 16.3817 2.03703 17.4459C3.10528 18.5101 4.39286 18.8432 5.85104 18.9163C7.35391 19.0016 11.8584 19.0016 13.3613 18.9163C14.8195 18.8472 16.1111 18.5142 17.1753 17.4459C18.2395 16.3817 18.5726 15.0901 18.6457 13.6319C18.731 12.129 18.731 7.62856 18.6457 6.1257ZM16.7041 15.2444C16.3873 16.0405 15.774 16.6539 14.9738 16.9747C13.7756 17.45 10.9323 17.3403 9.6082 17.3403C8.28405 17.3403 5.43674 17.4459 4.24258 16.9747C3.44647 16.6579 2.83314 16.0446 2.51225 15.2444C2.03703 14.0462 2.14669 11.2029 2.14669 9.87879C2.14669 8.55465 2.04109 5.70734 2.51225 4.51317C2.82907 3.71706 3.4424 3.10373 4.24258 2.78285C5.4408 2.30762 8.28405 2.41729 9.6082 2.41729C10.9323 2.41729 13.7797 2.31168 14.9738 2.78285C15.7699 3.09967 16.3833 3.713 16.7041 4.51317C17.1794 5.7114 17.0697 8.55465 17.0697 9.87879C17.0697 11.2029 17.1794 14.0502 16.7041 15.2444Z" fill="white"/>
</svg>
