<svg width="22" height="22" viewBox="0 0 22 22" fill="none" xmlns="http://www.w3.org/2000/svg">
<path d="M4.58244 0C2.05151 0 0 2.05193 0 4.58337C0 6.10169 1.23109 7.33303 2.7491 7.33303H19.2464C20.6938 7.35045 21.902 6.23188 21.9955 4.78783C22.1064 2.25639 20.1438 0.114607 17.6129 0.00458429C17.546 0.00183372 4.58244 0 4.58244 0ZM20.1631 9.16674H1.83334C1.32734 9.16674 0.916671 9.5775 0.916671 10.0836V17.4166C0.919421 19.9462 2.97001 21.9972 5.49911 22H16.4973C19.0264 21.9972 21.077 19.9462 21.0798 17.4166V10.0836C21.0798 9.5775 20.6691 9.16674 20.1631 9.16674ZM16.2086 13.5026L11.8636 17.5496C11.3676 18.0465 10.6774 18.3326 9.94221 18.3326C9.20704 18.3326 8.51679 18.0465 7.99704 17.5267L5.77044 15.3161C5.41111 14.9585 5.40928 14.3791 5.76586 14.0197C6.12336 13.6593 6.70178 13.6575 7.06295 14.0142L9.29229 16.2275C9.64338 16.5805 10.2447 16.5777 10.5903 16.2302L14.9592 12.1612C15.3286 11.8165 15.9107 11.8366 16.2544 12.207C16.6 12.5775 16.5789 13.1578 16.2086 13.5026Z" fill="white"/>
</svg>
