<svg width="18" height="20" viewBox="0 0 18 20" fill="none" xmlns="http://www.w3.org/2000/svg">
<path fill-rule="evenodd" clip-rule="evenodd" d="M14.6607 7.33963V6.21142C14.6607 3.14852 12.0226 0.665527 8.76821 0.665527C5.51384 0.665527 2.87571 3.14852 2.87571 6.21142V7.33963C1.34368 7.96893 0.352551 9.39183 0.350342 10.9651V15.7187C0.353104 17.9054 2.23588 19.6775 4.55925 19.6801H12.9771C15.3005 19.6775 17.1833 17.9054 17.1861 15.7187V10.9651C17.1839 9.39183 16.1927 7.96893 14.6607 7.33963ZM12.9772 7.00372H4.55925V6.21146C4.55925 4.02367 6.44365 2.25008 8.76821 2.25008C11.0928 2.25008 12.9772 4.02364 12.9772 6.21146V7.00372ZM12.1794 14.795L12.8181 15.2629L13.7465 13.9854L14.6675 15.2629L15.3137 14.795L14.3853 13.5249L15.8856 13.0422L15.6405 12.292L14.1476 12.7673V11.2002H13.3529V12.7673L11.8526 12.292L11.6149 13.0422L13.1004 13.5249L12.1794 14.795ZM7.86662 15.2629L7.22787 14.795L8.14885 13.5249L6.6634 13.0422L6.90107 12.292L8.40138 12.7673V11.2002H9.1961V12.7673L10.689 12.292L10.9341 13.0422L9.43377 13.5249L10.3622 14.795L9.71601 15.2629L8.79502 13.9854L7.86662 15.2629ZM2.27636 14.795L2.9151 15.2629L3.84351 13.9854L4.76449 15.2629L5.41067 14.795L4.48226 13.5249L5.98257 13.0422L5.73747 12.292L4.24458 12.7673V11.2002H3.44987V12.7673L1.94956 12.292L1.71189 13.0422L3.19734 13.5249L2.27636 14.795Z" fill="white"/>
</svg>
