<svg width="20" height="22" viewBox="0 0 20 22" fill="none" xmlns="http://www.w3.org/2000/svg">
<path d="M20 20.6049L13.769 13.8995C14.9434 12.4256 15.6589 10.515 15.6589 8.42549C15.6589 3.7798 12.1465 0 7.82944 0C5.73838 0 3.77138 0.876251 2.29102 2.46672C0.813058 4.05849 -0.00120319 6.17523 1.33447e-06 8.42549C1.33447e-06 13.0712 3.51241 16.851 7.82944 16.851C9.77114 16.851 11.5478 16.081 12.9174 14.8172L19.1484 21.5226L20 20.6049ZM7.82944 15.5547C4.17731 15.5547 1.20453 12.3569 1.20453 8.42549C1.20333 6.52003 1.89232 4.72994 3.14382 3.38445C4.39412 2.03767 6.05878 1.29623 7.82944 1.29623C11.4816 1.29623 14.4543 4.49403 14.4543 8.42549C14.4543 12.3557 11.4816 15.5547 7.82944 15.5547Z" fill="white"/>
</svg>
